<svg width="40" height="40" viewBox="0 0 40 40" fill="none" xmlns="http://www.w3.org/2000/svg">
<g id="Group 49">
<circle id="Ellipse 1" cx="20" cy="20" r="20" fill="#D9D9D9"/>
<path id="Vector" d="M20 11C15.05 11 11 15.041 11 20.018C11 24.518 14.294 28.253 18.596 28.928V22.628H16.31V20.018H18.596V18.029C18.596 15.77 19.937 14.528 21.998 14.528C22.979 14.528 24.005 14.699 24.005 14.699V16.922H22.871C21.755 16.922 21.404 17.615 21.404 18.326V20.018H23.906L23.501 22.628H21.404V28.928C23.5248 28.593 25.456 27.5109 26.8489 25.877C28.2419 24.2431 29.0048 22.1651 29 20.018C29 15.041 24.95 11 20 11Z" fill="black"/>
</g>
</svg>
