<svg width="40" height="40" viewBox="0 0 40 40" fill="none" xmlns="http://www.w3.org/2000/svg">
<g id="Group 47">
<circle id="Ellipse 1" cx="20" cy="20" r="20" fill="#D9D9D9"/>
<path id="Vector" d="M29.92 13.8088C29.2236 14.1253 28.473 14.3333 27.6952 14.4328C28.4911 13.9535 29.106 13.1938 29.3955 12.2804C28.6448 12.7326 27.8128 13.0491 26.9355 13.23C26.221 12.4522 25.2171 12 24.0776 12C21.9523 12 20.2158 13.7364 20.2158 15.8799C20.2158 16.1874 20.252 16.4858 20.3153 16.7662C17.0956 16.6034 14.2287 15.0569 12.3204 12.7145C11.9858 13.2842 11.7959 13.9535 11.7959 14.6589C11.7959 16.0065 12.4742 17.2003 13.5233 17.8786C12.8811 17.8786 12.2842 17.6977 11.7597 17.4264C11.7597 17.4264 11.7597 17.4264 11.7597 17.4535C11.7597 19.3347 13.0982 20.9083 14.8708 21.261C14.5452 21.3515 14.2016 21.3967 13.8489 21.3967C13.6047 21.3967 13.3605 21.3696 13.1253 21.3243C13.6137 22.8528 15.0336 23.9923 16.7429 24.0194C15.4225 25.0685 13.7494 25.6835 11.9225 25.6835C11.615 25.6835 11.3075 25.6655 11 25.6293C12.7184 26.7326 14.7623 27.3748 16.9509 27.3748C24.0776 27.3748 27.9936 21.46 27.9936 16.3321C27.9936 16.1602 27.9936 15.9974 27.9846 15.8256C28.7443 15.283 29.3954 14.5956 29.92 13.8088Z" fill="black"/>
</g>
</svg>
